# xmcd CD database file
#
# Track frame offsets:
#	150
#	13687
#	27252
#	40602
#	55132
#	69492
#	82810
#	97225
#	108427
#	120870
#	133797
#	146857
#	158037
#	171795
#	186997
#	203707
#	215912
#	230537
#	242382
#	260252
#	272817
#	286855
#	295577
#
# Disc length: 4155 seconds
#
# Revision: 0
# Processed by: cddbd v1.4PL0 Copyright (c) Steve Scherf et al.
# Submitted via: CDex 1.50Beta5
#
DISCID=48103917
DTITLE=Duke Ellington - The Complete Capitol Recordings of Duke Ellington [CDI)
DYEAR=1900
DGENRE=Jazz
TTITLE0=Satin Doll
TTITLE1=Without A Song
TTITLE2=Cocktails For Two
TTITLE3=My Old Flame
TTITLE4=I Can't Give You Anything But Love
TTITLE5=Ain't Nothin' Nothin' (Baby Without You)
TTITLE6=Stormy Weather
TTITLE7=Star Dust
TTITLE8=Three Little Words
TTITLE9=Orson
TTITLE10=Boo-Dah
TTITLE11=Blossom
TTITLE12=Ballin' The Blues
TTITLE13=Warm Valley
TTITLE14=Flamingo
TTITLE15=Bluejean Beguine
TTITLE16=Laza
TTITLE17=Who Knows
TTITLE18=Retrospective
TTITLE19=B Sharp Blues
TTITLE20=Passion Flower
TTITLE21=Dancers In Love
TTITLE22=Reflections in D
EXTD=
EXTT0=
EXTT1=
EXTT2=
EXTT3=
EXTT4=
EXTT5=
EXTT6=
EXTT7=
EXTT8=
EXTT9=
EXTT10=
EXTT11=
EXTT12=
EXTT13=
EXTT14=
EXTT15=
EXTT16=
EXTT17=
EXTT18=
EXTT19=
EXTT20=
EXTT21=
EXTT22=
PLAYORDER=
